#!OML:ASF F:\VICON\USERDATA\INSTALL\rory3\rory3.ASF
:FULLY-SPECIFIED
:DEGREES
309
root 6.69835 15.6672 -4.83108 -177.313 49.3255 -172.258
lowerback 9.54259 0.0246015 2.86104
upperback -0.569064 0.457982 1.12629
thorax -5.9453 0.166582 -0.500162
lowerneck -11.3715 -8.64931 -13.0521
upperneck 22.0603 -11.1016 9.26329
head 10.1795 -5.11379 4.01909
rclavicle -2.57131e-014 6.95746e-015
rhumerus -36.2591 -2.29779 -83.3046
rradius 30.0164
rwrist 8.28274
rhand -17.6379 13.9155
rfingers 7.12502
rthumb 8.61978 -15.8886
lclavicle -2.57131e-014 6.95746e-015
lhumerus -36.8897 11.8499 77.7018
lradius 24.5859
lwrist -1.82223
lhand -12.4741 12.9547
lfingers 7.12502
lthumb 13.6001 42.4905
rfemur -8.78148 4.65804 33.3864
rtibia 31.4194
rfoot -17.4454 -17.4316
rtoes 6.69265
lfemur -21.6597 0.0115285 -15.8614
ltibia 65.3522
lfoot -6.55942 9.34419
ltoes -9.26544
310
root 6.77276 15.6535 -4.87952 -177.108 49.1698 -171.987
lowerback 9.67741 -0.00583323 3.03228
upperback -0.558813 0.445616 1.14732
thorax -6.01054 0.155523 -0.573159
lowerneck -11.322 -8.65627 -12.9566
upperneck 22.0613 -11.1334 9.25752
head 10.1677 -5.12142 3.99877
rclavicle -5.01512e-014 2.38542e-014
rhumerus -36.048 -2.10906 -83.468
rradius 30.302
rwrist 7.99279
rhand -17.885 13.5593
rfingers 7.12502
rthumb 8.38134 -16.2544
lclavicle -5.01512e-014 2.38542e-014
lhumerus -36.8214 11.6588 77.8593
lradius 24.8145
lwrist -1.30747
lhand -12.7993 12.8997
lfingers 7.12502
lthumb 13.2867 42.4561
rfemur -8.4758 4.65345 33.6906
rtibia 31.5504
rfoot -18.0166 -17.3886
rtoes 6.5268
lfemur -22.5769 -0.430572 -15.6704
ltibia 64.3623
lfoot -7.45872 9.27992
ltoes -10.1317
311
root 6.84829 15.6423 -4.93274 -177.057 49.0891 -171.958
lowerback 9.71764 -0.00662748 3.08673
upperback -0.503344 0.449849 1.11545
thorax -5.97405 0.15663 -0.637983
lowerneck -11.358 -8.67159 -12.9008
upperneck 22.0165 -11.1787 9.32591
head 10.1645 -5.13041 4.00566
rclavicle 1.14251e-014 -1.33186e-014
rhumerus -35.8025 -1.87015 -83.539
rradius 30.6278
rwrist 7.83002
rhand -17.6501 13.6237
rfingers 7.12502
rthumb 8.608 -16.1808
lclavicle 1.14251e-014 -1.33186e-014
lhumerus -36.6459 11.9149 77.7833
lradius 24.9185
lwrist -1.59489
lhand -12.7174 12.8248
lfingers 7.12502
lthumb 13.3656 42.3761
rfemur -8.17398 4.59702 33.7977
rtibia 31.6514
rfoot -18.5897 -17.3731
rtoes 7.003
lfemur -23.3905 -0.908279 -15.6779
ltibia 63.2039
lfoot -8.45977 9.11768
ltoes -11.8988
312
root 6.92562 15.6361 -4.98702 -176.944 49.0178 -171.865
lowerback 9.75185 -0.00171609 3.18212
upperback -0.489888 0.469037 1.11092
thorax -5.97801 0.163377 -0.69933
lowerneck -11.2616 -8.67812 -12.9021
upperneck 21.9232 -11.2101 9.39509
head 10.1209 -5.14159 4.02812
rclavicle -8.81936e-014 4.17448e-015
rhumerus -35.7093 -1.49932 -83.6274
rradius 31.0544
rwrist 7.44528
rhand -17.421 13.7454
rfingers 7.12502
rthumb 8.82912 -16.0499
lclavicle -8.81936e-014 4.17448e-015
lhumerus -36.6093 12.015 77.8311
lradius 25.1216
lwrist -1.67152
lhand -12.7519 12.6481
lfingers 7.12502
lthumb 13.3323 42.2015
rfemur -7.76234 4.55987 33.9527
rtibia 31.5856
rfoot -18.8587 -17.4098
rtoes 6.224
lfemur -24.1151 -1.31586 -15.6477
ltibia 61.9
lfoot -8.99907 9.02455
ltoes -14.0351
313
root 7.00214 15.6313 -5.036 -176.623 48.9529 -171.516
lowerback 9.85629 0.00719936 3.35484
upperback -0.508244 0.514714 1.20148
thorax -6.05484 0.181804 -0.708833
lowerneck -11.1751 -8.69474 -12.9216
upperneck 21.8571 -11.2349 9.394
head 10.0853 -5.15816 4.02911
rclavicle -2.75798e-014 -1.61016e-014
rhumerus -35.6737 -0.97974 -83.7834
rradius 31.5916
rwrist 6.83688
rhand -17.7768 13.8246
rfingers 7.12502
rthumb 8.48572 -15.9849
lclavicle -2.75798e-014 -1.61016e-014
lhumerus -36.6251 11.7477 78.1327
lradius 25.4264
lwrist -1.16984
lhand -12.8444 12.5753
lfingers 7.12502
lthumb 13.2432 42.1346
rfemur -7.3095 4.55933 34.3139
rtibia 31.3432
rfoot -18.9396 -17.4788
rtoes 5.63793
lfemur -24.8551 -1.56313 -15.3842
ltibia 60.4844
lfoot -9.17618 8.8966
ltoes -14.543
314
root 7.08022 15.631 -5.08913 -176.27 48.9507 -171.111
lowerback 9.86992 0.044174 3.60905
upperback -0.461309 0.602115 1.28359
thorax -6.00888 0.220946 -0.77887
lowerneck -11.2487 -8.75037 -12.9902
upperneck 21.8776 -11.3078 9.45477
head 10.1246 -5.18909 4.04836
rclavicle -4.53074e-014 1.27222e-014
rhumerus -35.5449 -0.505389 -83.9544
rradius 32.1383
rwrist 6.25348
rhand -18.0409 13.8097
rfingers 7.12502
rthumb 8.2309 -16.0099
lclavicle -4.53074e-014 1.27222e-014
lhumerus -36.468 11.4522 78.4438
lradius 25.6691
lwrist -0.631927
lhand -12.7672 12.6188
lfingers 7.12502
lthumb 13.3176 42.1732
rfemur -6.8044 4.52395 34.6972
rtibia 30.9614
rfoot -18.6964 -17.8341
rtoes 5.07324
lfemur -25.5186 -1.89543 -15.0331
ltibia 58.9343
lfoot -9.62644 8.65488
ltoes -12.4884
